# xmcd
#
# Track frame offsets: 
#        150
#        13875
#        28175
#        42537
#        55315
#        68952
#        84275
#        97715
#        109747
#        121222
#        136675
#        149780
#        160227
#        171552
#
# Disc length: 2492 seconds
#
# Revision: 1
# Processed by: cddbd v1.5PL3 Copyright (c) Steve Scherf et al.
# Submitted via: ExactAudioCopy v0.90b4
#
DISCID=c409ba0e
DTITLE=Dale Watson - From The Start!
DYEAR=1900
DGENRE=Country
TTITLE0=That's The Day (I Never Live To See)
TTITLE1=List Of Reasons (Extended Version)
TTITLE2=Unspoken Kind
TTITLE3=Heaven's Gonna Have A Honky Tonk (Extended Version)
TTITLE4=All She Has To Do Is Cry
TTITLE5=One Memory At A Time
TTITLE6=Hot Dang (It's A Beautiful Day) (Extended Version)
TTITLE7=Burning In My Mind
TTITLE8=Cheatin' Heart Attack
TTITLE9=If It's Over
TTITLE10=I Held On To My Pride
TTITLE11=Life's Catchin' Up With Me
TTITLE12=Girl, I Hope You're Having Fun (Extended Version)
TTITLE13=One Memory At A Time (A Town South Of Bakersfield Mix)
EXTD=
EXTT0=
EXTT1=
EXTT2=
EXTT3=
EXTT4=
EXTT5=
EXTT6=
EXTT7=
EXTT8=
EXTT9=
EXTT10=
EXTT11=
EXTT12=
EXTT13=
PLAYORDER=
